<?xml version="1.0" encoding="utf-8"?>
<!-- Generator: Adobe Illustrator 19.2.1, SVG Export Plug-In . SVG Version: 6.00 Build 0)  -->
<svg version="1.1" id="layer" xmlns="http://www.w3.org/2000/svg" xmlns:xlink="http://www.w3.org/1999/xlink" x="0px" y="0px"
	 viewBox="0 0 652 652" style="enable-background:new 0 0 652 652;" xml:space="preserve">
<style type="text/css">
	.st0{clip-path:url(#SVGID_2_);fill-rule:evenodd;clip-rule:evenodd;fill:#000;}
	.st1{clip-path:url(#SVGID_2_);fill-rule:evenodd;clip-rule:evenodd;fill:#FFF000;}
	.st2{clip-path:url(#SVGID_2_);fill-rule:evenodd;clip-rule:evenodd;fill:#009844;}
	.st3{clip-path:url(#SVGID_2_);fill-rule:evenodd;clip-rule:evenodd;fill:#FFFFFF;}
	.st4{clip-path:url(#SVGID_2_);fill-rule:evenodd;clip-rule:evenodd;fill:#E50012;}
</style>
<g>
	<defs>
		<rect id="SVGID_1_" x="123.8" y="14.4" width="406.2" height="623.6"/>
	</defs>
	<clipPath id="SVGID_2_">
		<use xlink:href="#SVGID_1_"  style="overflow:visible;"/>
	</clipPath>
	<path class="st0" d="M143.2,15.5H510c10.4,0,18.9,8.9,18.9,19.7v583c0,10.8-8.5,19.7-18.9,19.7H143.2c-10.4,0-18.9-8.9-18.9-19.7
		v-583C124.3,24.3,132.8,15.5,143.2,15.5"/>
	<path class="st1" d="M474.3,594.7h-23.2v-9.2h4.6v-31.3h-4.6V546h23.2v8.1h-4.5v31.3h4.5V594.7z M474.6,534.8
		c0,1.3-1.1,2.5-3.3,3.4c-2.3,0.9-5.2,1.4-8.6,1.4c-3.3,0-6.1-0.5-8.4-1.4c-2.3-0.9-3.4-2-3.4-3.4c0-1.3,1.1-2.4,3.4-3.4
		c2.3-0.9,5-1.4,8.4-1.4c3.3,0,6.2,0.5,8.5,1.4C473.4,532.4,474.6,533.5,474.6,534.8 M443.2,572.6H429v-15.9c0-0.6-0.1-1.1-0.2-1.3
		c-0.1-0.1-0.3-0.2-0.6-0.2c-0.9,0-2.3,1.1-4.4,3.2c-1.4,1.5-2.6,3-3.6,4.6v22.5h4.5v9.2h-22.8v-9.2h4.7v-31.3h-4.7V546h18.3v6.9
		c1.4-1.5,3.2-2.9,5.6-4.2c3.1-1.8,5.9-2.6,8.5-2.6c2.8,0,4.9,0.7,6.5,2.2c1.6,1.5,2.4,3.4,2.4,5.8V572.6z M379.7,588V571h-7
		c-1.8,0-2.7,0.8-2.7,2.4v11.8c0,1.9,0.9,2.9,2.9,2.9H379.7z M397.5,594.7h-30.8c-3.4,0-6.1-1-8-3.1c-1.8-1.9-2.7-4.2-2.7-7.1V574
		c0-5.6,3.5-8.4,10.4-8.4h13.4v-10.5c0-1.6-0.7-2.4-2.1-2.4h-5.3c-0.7,0-1.3,0.2-1.7,0.7c-0.4,0.5-0.6,1-0.6,1.5v6.8H356v-6.1
		c0-6.4,4-9.6,12-9.6h15.3c7.1,0,10.6,3.3,10.6,9.9v29.6h3.6V594.7z M351.3,572.6h-14.2v-15.9c0-0.6-0.1-1.1-0.2-1.3
		c-0.1-0.1-0.3-0.2-0.6-0.2c-0.9,0-2.3,1.1-4.4,3.2c-1.4,1.5-2.6,3-3.6,4.6v22.5h4.5v9.2h-22.8v-9.2h4.7v-31.3h-4.7V546h18.3v6.9
		c1.4-1.5,3.2-2.9,5.6-4.2c3.1-1.8,5.9-2.6,8.5-2.6c2.8,0,4.9,0.7,6.5,2.2c1.6,1.5,2.4,3.4,2.4,5.8V572.6z M305.5,572.6h-14.2v-15.9
		c0-0.6-0.1-1.1-0.2-1.3c-0.1-0.1-0.3-0.2-0.6-0.2c-0.9,0-2.3,1.1-4.4,3.2c-1.4,1.5-2.6,3-3.6,4.6v22.5h4.5v9.2h-22.8v-9.2h4.7
		v-31.3h-4.7V546h18.3v6.9c1.4-1.5,3.2-2.9,5.6-4.2c3.1-1.8,5.9-2.6,8.5-2.6c2.8,0,4.9,0.7,6.5,2.2c1.6,1.5,2.4,3.4,2.4,5.8V572.6z
		 M245.5,568.7v-13.1c0-1.9-0.8-2.8-2.4-2.8h-7.6c-1.7,0-2.5,1-2.5,2.9v13H245.5z M259.6,574.2H233v11.3c0,1.7,0.9,2.6,2.7,2.6h7.2
		c1.7,0,2.5-0.9,2.5-2.7v-6.6h14.1v6c0,3.1-1.1,5.5-3.3,7.3c-2.2,1.8-5.2,2.7-9,2.7h-16.6c-3.8,0-6.8-1-8.8-3
		c-1.9-1.9-2.9-4.4-2.9-7.7v-28c0-3.3,1.3-5.9,3.8-7.7c2.1-1.5,4.9-2.3,8.2-2.3h16.9c7.8,0,11.7,3.4,11.7,10.3V574.2z M446.1,530
		v9.2H202.6v18.3h4.5v-4.3h6.9v17.2h-6.9v-4.1h-4.5v19.3h9.5v9.2h-33.5v-9.2h9.5v-46.3h-9.5V530H446.1z M357,455.4
		c-1.1,4-2.3,4.5-7.8,6.8c-6,3.7-9.2,8-4.5,1c1.1-1.2,2.1-2.3,3.2-3.5C351,457.6,354.1,454,357,455.4 M423.9,367.3
		c27.3-16.9,10.5-33.4,18.1-53.2c-12.1,14.7,3.3,36-22,50.4C412.7,367.5,416,370.3,423.9,367.3 M395.5,374.4
		c-2.9,3-2.7,4.3-1.9,10.1c-0.1,7-2.2,11.9,1.4,4.4c0.5-1.5,0.9-3,1.4-4.5C396.7,380.6,398.2,376,395.5,374.4 M346.6,336.2
		c4.1,2.8,3.4,3.6-0.2,7.3c-2.3,4.8-0.4,8.7-4.1,2.6c-0.3-1.1-0.6-2.3-0.9-3.4C342.1,340,341,336.6,346.6,336.2 M346.3,370.1
		c0,6.2-1.7,12.4-6.8,18.6c-1.6-0.3-3.1-0.5-4.6-0.8c-2.4,0.9-2.9,1.8-1.6,2.7c0.9,0.8,1.8,1.6,2.7,2.4c-2.5,7.9-4.2,15.8-0.8,23.8
		c3.5,1.6,4.7,0.7,3.8-2.7c-5.7-8.9-1.2-14.6,2.7-20.5c1.6,4.9-3.2,13.4,0.5,14.6c3.6-6.2,10.8-17,1.6-17.3
		c4.9-6.2,7.3-16.5,7.4-19.7C351.4,364.3,348.1,364.4,346.3,370.1 M324.7,378.7c3.5,2.1,4.7,1.6,3.8-1.4c-5.2-9-8.2-9.5-12.8-14.6
		c-3-0.5-3.8-0.8-2.5,0.8C317.4,369.9,321.7,373.5,324.7,378.7 M318.4,355c-5.9,2.4-28.9-20.7-30.6-21.9c-3.2-5.4-3-7.9,0.7-7.4
		C297.9,335.7,309,348,318.4,355 M346.5,311.5c-1.7,12.3-19.2-21.3-17-22.7c-1.6-5.3,0.5-6.6,3.5-5.5
		C335.8,293.1,336.2,301.8,346.5,311.5 M253.6,286.3c-1.1-5.4,0-6.2,5.2-9.5c5-5.2,6.2-11.2,4.8-1.6c-0.6,1.6-1.1,3.3-1.7,4.9
		C259.5,283.2,257.9,288.2,253.6,286.3 M247,273.2c-3.8-0.1-4.1-0.4-5.5-4.3c-2.8-4-6.1-10.4,2.8-4.4c1,0.6,2,1.2,3,1.8
		C249.1,268.4,248.9,270.7,247,273.2 M232.3,245.4c-0.5,3-0.8,3.2-4.1,3.9c-3.6,1.8-9.1,3.7-3.2-2.7c0.6-0.7,1.2-1.5,1.8-2.2
		C228.6,243.3,230.4,243.6,232.3,245.4 M218,282c2.7,1.5,2.7,1.9,2.1,5.8c0.3,4.6-0.1,11.4-3.8,2.7c-0.5-0.9-0.9-1.8-1.4-2.7
		C214.5,285.4,215.6,283.5,218,282 M230.5,294.4c7.3,3,11.2,7.3,16,9.6c5.3,2.6,8,0.2,5.6-2.8C243.1,296.7,235,290.4,230.5,294.4
		 M314.2,166.9c1.7,0,3.1,1.2,3.1,2.6c0,1.4-0.4,2.6-2.1,2.6c-1.7,0-3.5-2.2-3.5-3.6C311.8,167.1,312.5,166.9,314.2,166.9
		 M303.4,239.1c-0.5,12.3,19.3-21.7,20.5-23c1.6-5.3,0.9-7.3-2.1-6.2C315.7,219.6,309.6,229.3,303.4,239.1 M288.5,251.8
		c-1.3,1.1-1.2,2.3,0.3,3.4c7.6-0.7,9.4-2.1,16.3,0.7c2.9,0.2,6.6-1.9,3.8-4.1C303.3,247.3,295.3,250.6,288.5,251.8 M218,280.8
		c4.8-0.9,9.6-1.5,16-0.3c3.1,0.7,9.7,2.2,13.1,1.7c-2.7-3.6-4.7-7.7-7.6-11.2c-2.4-2.6-5.2-4.9-7.3-7.8c-3-1.7-3.7-2-7-0.9
		c-2.7,2.1-2.9,3.7-4.1,6.9C221.2,274.2,220.6,276.7,218,280.8 M276.6,177.6c1.3,0,2.3,1.3,2.2,3c-0.1,1.6-1.3,3-2.6,3
		c-1.3,0-2.3-1.3-2.2-3C274.1,178.9,275.3,177.6,276.6,177.6 M269.1,183.5c-0.7-6.4-0.5-8.2,8.6-12.2c7.1-3.2,13.2-3.4,20.3-5.4
		c3.6-4.2,5.1-4,9.7-5.2c0.1-0.9,0.2-1.9,0.4-2.8c-3.3-2.3-5-3.6-7.5-6.7c0.1-1.1,0.2-2.1,0.4-3.2c1,0.1,1.9,0.2,2.9,0.4
		c-0.4-1.1-0.7-2.1-1.1-3.2c3.4,0.2,6.9,0.5,10.4,0.7v-2.8v-4.6c0.3-1.5,1-1.9,2.1-1.1c2.1,2.6,4.3,5.2,6.4,7.8
		c0.2-2.8,0.8-5.1,1-7.9c0.1-1.5,0.9-1.9,2.5-1.1c2.1,4,4,7.4,6.1,11.4c4.7-1.7,11.2-1,18.2,0.3c-0.5,0.8-1,1.6-1.4,2.5
		c2.6,0.8,5.2,1.6,7.9,2.5c-0.1,0.7-0.2,1.4-0.4,2.1c7.9,0.8,11.9,1.9,19.3,4.9c-4.2,1.2-8.3,2.4-12.5,3.5c-2.3,1.1-2.3,2.1,0,3.2
		c8,2.7,16,6.3,23.9,15.9c-0.2,0.7-0.5,1.4-0.7,2.1c-9.2-6.9-17.4-10.7-24.3-9.9c-0.7,1.2-0.2,2.4,1.4,3.5
		c8.7,6.5,17.4,10.6,26.1,11c-7.1,1.4-14.3,1.4-21.4-1.8c-0.4,1.4-1.2,2.8,0,4.2c5.1,3.1,8.8,6.6,19.7,8.1c0,0.7-2.3,0.8-2.3,1.5
		c-7.1,0.4-12-2-19.1-5.4c-1.4,0.7-2,1.7-1.8,3.2c5.1,7.5,10,15.3,16.8,21.2c-0.7,0.2-1.4,0.5-2.1,0.7c-8.9-5.8-12.6-10.3-17.9-15.2
		c-0.6,1.4-1.9,2.8,0,4.2c5.9,5.9,11.2,10.3,19.7,21.9c-0.3,1.5-1,1.9-2.1,1.1c-7.4-7.3-7.5-6.8-17.9-8.1c0.3,8,13.7,7.7,21.6,20.6
		c-0.6,0.2-0.3,1-0.9,1.3c-7.3-3.8-6.9-3.5-15-1.8c3.1,2.1,6.2,4.2,9.3,6.4v2.1c-5.3-2.2-9.8-2.3-14.3-2.1c4.2,3.3,8.3,6.6,12.5,9.9
		c1.5,1.1,1,1.8-1.4,2.1c-4.5-1.5-9.1-3.1-13.6-4.6c4.8,4.4,8.7,7.6,13.4,11.9c1.2,1.7,0.6,2.6-0.6,2.8c-8.8-5.3-9.9-7.5-19.6-5.2
		v3.9c9.1,0,8.1-1.1,13.6,6c-3.9-1.8-5-2.1-9.3-2.1c1.9,3.8,2.9,7.5,8.9,11.3c9.1,6.9-12.1-1.4-15.7-6.4c-4-2.8-8.1-4.8-12.2-6
		c-0.9,3.5-1.5,7.1,0,10.6c4.4,7.2,8.8,14.4,13.2,21.6c3.7,3.9,7.1,8.4,10.8,12.2c4.9,3.5,7.7,7.4,12.6,10.9
		c12.3,10.3,26.4,17.1,26.3,35.2c29.9,8.4,34.6-42.4,30.7-47.4c-13.9-31-4.3-54.7,15.4-68.2v2.1c-9.2,10.3-11,13.1-15,26.1
		c0.6,2.3,0.5,5.5,3.6,4.6c4.1-4.9,8.9-9.1,14.3-12.7c2.4,0.4,2.9,1.6,1.4,3.5c-7.3,10.9-8.9,13.2-10.4,26.1
		c0.9,0.5,1.9,0.9,2.9,1.4c2.9-3.2,5.7-6.4,8.6-9.5c2.2,0.9,2.4,2.2,0.7,3.9c-8.6,6.3,0.2,37.2-1.8,48.4
		c-2.8,15.6-11.8,20.5-24.3,30c2.9,11.9,2.2,14.2-0.7,26.1c-1-8.1,0.7-13.2-6.1-17.7c-0.5,16.3-12.2,26-10,24.7
		c3.3-9.6,6.1-11.9,2.1-21.2c-1.6,4.9-3.5,9.7-5.4,14.5c0.6-4.8,0.7-23.2-0.4-21.6c-1.1,0.1-2.1,0.2-3.2,0.3
		c-6.5,21.2-12.6,26.7-30.4,39.2c-2.5,1.6-5,3.3-7.5,4.9c-1.7,7.2-0.5,9.1,1.8,16.3c1.3,2.8,2.6,5.7,3.9,8.5c0,6.6,0.3,6.3-3.9,11.3
		c-3.5,1.3-6.9,2.6-10.4,3.9c-5.4,5.2-10.7,10.4-16.1,15.5c-1,7.2-1.4,5.5-8.6,7.4c0.5,1.9,1,3.8,1.4,5.7
		c-8.4,6.3-10.7,7.1-21.1,9.2c-0.6-0.9-1.2-1.9-1.8-2.8c1.5-3.2,3.1-6.4,4.6-9.5c3.6-4.4,6.4-11,12.1-11c0.1-0.9,0.2-1.9,0.4-2.8
		c2.3-1.7,5.1-3.3,7.4-4.9c6-5.7,11.3-11.3,17.3-17c1.3-2.1,1.3-4.2,1.1-6.4c-1.1-1.9-2.2-3.8-3.2-5.7c-1.2-2.8-2.4-5.7-3.6-8.5
		c-1.4,0.2-2.9,0.5-4.3,0.7c-2.1,6.2-0.4,6.6-7.1,5.6c-5.8-2.7-11.7-5.4-17.5-8.1c-5-0.7-10-1.4-15-2.1c-5.7-0.7-8.4-0.5-13.2-3.5
		c-2.9,0.1-5.7,0.2-8.6,0.3c-0.6,0.7-1.2,1.4-1.8,2.1c-10.1,0.4-7.7,0.7-15.6-6.4c-1.3-3.1-3.8-6.1-5.1-9.2c7.7-1.2,12-1.7,19.7-0.7
		c1.3,0.9,2.6,1.9,3.9,2.8c7.5,0.6,12.1,0,18.6,3.9c6.2,1.4,12.4,2.8,18.6,4.2c2.7-0.2,5.5-0.5,8.2-0.7c0.7-1.5,1.4-3.1,2.2-4.6
		c-0.5-1.9-1-3.8-1.4-5.6c-6-3.4-10-10.3-10.7-17.8c0,0-5.6-5.7-6.6-10.3c-2.3-10.9-8.6-19.8,1.9-21.8c1.6-2.9-8.4-8.3-11.4-10.6
		c-12.7-10.2-25.9-18-27.5-35c-2.6-0.1-5.2-0.2-7.9-0.3c-8.4,0.8-7.9-0.6-13.6-6c-6.9-2.2-12.8-6.3-17.9-11.7c0,0-4.7-3.2-7.2-3.2
		c-3.5,0,1,21.4-0.3,24.1c3.7,3.7,4,2.9,3.6,8.1c3.4,4,5.2,5,5.7,10.2c0.5,1.3,0.9,2.6,1.4,3.9c6.8,1.4,4.7-0.2,5.8,6
		c0.7,3.9-0.1,8.8-0.1,8.8c-0.5,1.8-1,3.5-1.4,5.3c0,0-4.6-1.4-6.8-3.5c-4.8-4.8-5.2-3.4-4.3-9.9c-2.9-1.2-3.1-2-5-4.6
		c0,0,1.1-1.1-1.4-2.8c-4.1-2.9-3.2-2.3-3.2-7.4v-4.6c0-1.8,1.4-1.4-0.4-5.3c-1.8-3.9-1.1-1.1-3.2-6.4c-1.1-2.3-0.1-6.4-0.4-7.1
		c-2.3-6.3-2.2-8.4-2.9-8.1c-0.2,2.1-0.5,4.2-0.7,6.4v2.8c-2.2,4.4-3,6-6.1,11c-4.2,1.2-6.8,1.9-6.8-4.6c0-6.7-0.1-7.5,2.9-13.4
		c0.4-1.5,0.7-3.1,1.1-4.6v-4.9c0-7.3,1.2-15.4,6.1-21.2c3-3.6,6.3-15.1,7.5-19.4c0.6-6-0.7-6.4,4.6-8.8c0.7-3.6,9.3-4,11.8-2.5
		c1.8,1.1,5,4.2,5,4.2c6.7,4.1,13.5,7.5,19.3,14.1c2.6,0,5.2,0,7.9,0c2.3-1.6,4.5-3.3,6.8-4.9c0.3-2.9,9.7-8.6,11.9-7.3
		c3.6-8.6,7.1-12.5,14.1-19.4c-1.4-0.4,12.4-23.6,14.7-23.5c0.5-2.4,2.2-9.8-1-10.6c-4.2,1.3-15.9-0.5-17.9-3.9
		c-1.3,0-1.7,0.6-3.1,0.6c-1.3,0.4-2.6,0.7-3.9,1.1c-3,2.5-3.6,0.9-7,2c-2.1,0-5.4,0.7-6.1-0.9c-1.3-2.9,1.5-2.5,3.3-2.7
		c0.8-0.2,1.7-0.5,2.5-0.7c3.9-1.3,0.7-1.5-1.8-2.8c-1,0.2-1.9,0.5-2.9,0.7c-0.8,0-1.7,0-2.5,0c-0.7,0-1.4,0-2.1,0
		C268.3,186.5,269.4,186.9,269.1,183.5 M143.5,101.2l367,0c3.4,0.5,4.7,3.6,4.9,6.7l-0.1,511c-0.5,3.2-2.3,5.5-5.7,5.6l-367,0
		c-3.4-0.5-4.7-3.6-4.9-6.6l0-511C138.3,103.6,140.1,101.4,143.5,101.2"/>
	<rect x="137.8" y="28.8" class="st2" width="377.6" height="23.7"/>
	<rect x="137.8" y="52.6" class="st3" width="377.6" height="23.7"/>
	<rect x="137.8" y="76.3" class="st4" width="377.6" height="23.7"/>
</g>
</svg>
